<svg width="20" height="20" viewBox="0 0 20 20" fill="none" xmlns="http://www.w3.org/2000/svg">
<g id="UI icons" clip-path="url(#clip0_1_74050)">
<path id="Plus" fill-rule="evenodd" clip-rule="evenodd" d="M8.78824 16.7765C8.78824 17.4392 9.32549 17.9765 9.98823 17.9765C10.651 17.9765 11.1882 17.4392 11.1882 16.7765V11.1882H16.7765C17.4392 11.1882 17.9765 10.651 17.9765 9.98823C17.9765 9.32548 17.4392 8.78822 16.7765 8.78822H11.1882V3.2C11.1882 2.53726 10.651 2 9.98823 2C9.32549 2 8.78824 2.53726 8.78824 3.2V8.78822H3.2C2.53726 8.78822 2 9.32548 2 9.98823C2 10.651 2.53726 11.1882 3.2 11.1882H8.78824V16.7765Z" fill="white"/>
</g>
<defs>
<clipPath id="clip0_1_74050">
<rect width="20" height="20" fill="white"/>
</clipPath>
</defs>
</svg>
