<svg
  width="24"
  height="24"
  viewBox="0 0 24 24"
  xmlns="http://www.w3.org/2000/svg"
  aria-hidden="true"
  role="img"
>
  <path
    d="M12.0001 24.0002C18.6276 24.0002 24.0002 18.6276 24.0002 12.0001C24.0002 5.37264 18.6276 0 12.0001 0C5.37264 0 0 5.37264 0 12.0001C0 18.6276 5.37264 24.0002 12.0001 24.0002Z"
    fill="white"
  />
  <path
    d="M14.9574 8.10222L14.9656 8.1092L15.0372 8.16806C15.6397 8.66508 16.8939 9.69926 18.7114 10.3808C19.7469 10.7665 20.8428 10.9649 21.9478 10.9669C22.2575 10.9669 22.5712 10.9821 22.8812 10.9564C22.6248 8.27972 21.392 5.7911 19.4179 3.96522C17.3951 2.08987 14.7763 1.0497 12.0161 1.0497C9.27892 1.04545 6.64092 2.07387 4.62891 3.92956C5.11921 4.45675 5.41922 4.90539 5.68582 5.3039C5.83221 5.52261 5.97037 5.72935 6.12499 5.92736C6.57614 6.50094 6.89137 6.46353 7.08938 6.38448L7.13327 6.36802C7.25974 6.32347 7.3818 6.26729 7.49788 6.20018C7.61734 6.12936 7.70263 6.073 7.79291 6.01315C7.89591 5.94507 8.01237 5.86776 8.19617 5.75878C8.57026 5.53633 8.81964 5.39767 8.97975 5.32286C9.71321 4.97871 10.4716 4.62309 11.5337 4.61361C11.8109 4.61331 12.0876 4.63835 12.3602 4.68843C13.6162 4.91113 14.4863 5.68297 14.8102 6.8613C14.9162 7.27652 14.9693 7.70196 14.9564 8.03065C14.9547 8.05449 14.955 8.07843 14.9574 8.10222Z"
    fill="#009BFF"
  />
  <path
    d="M1.36255 14.5338C1.9217 16.8565 3.25797 18.9809 5.12196 20.5024C7.06052 22.0841 9.50736 22.9398 11.9981 22.9398C14.8744 22.9398 17.5571 21.8425 19.6074 19.8473C21.6183 17.8907 22.8082 15.28 22.9132 12.4808L22.8775 12.4855C22.098 12.5984 21.31 12.6427 20.5227 12.6179C18.7485 12.5581 17.0731 12.0847 15.0904 11.0831C13.9204 10.4918 13.2743 10.1801 12.4739 10.121C11.4906 10.0461 11.0294 10.3868 10.2648 10.95C9.85227 11.2525 8.70056 12.0117 7.9798 12.4122C6.44177 13.2666 3.73506 14.2081 1.36255 14.5338Z"
    fill="#64BE2D"
  />
  <path
    d="M22.1291 11.9224C20.6578 12.1089 18.8964 11.9049 17.3019 11.3084C16.3159 10.9395 15.1211 10.3652 14.0014 9.72928C13.7238 9.57192 13.269 9.36643 13.4123 9.20034C13.8238 8.72401 13.4956 8.36914 12.8931 8.51254C11.3654 8.87539 10.6487 7.94743 10.4442 7.15214C10.3053 6.61422 9.56917 6.60874 8.88512 7.14741C8.42601 7.50901 7.57488 8.64122 6.6437 8.42251C5.38558 8.12699 5.99532 6.93368 6.01651 6.95114C6.84944 7.58782 7.87314 6.81049 8.2704 6.5833C8.67514 6.35262 9.06841 6.09825 9.49061 5.89924C10.3525 5.4895 11.15 5.20096 12.2465 5.39623C13.9448 5.69649 14.273 7.08282 14.1692 8.34645C14.1668 8.36638 14.1696 8.38661 14.1773 8.40515C14.185 8.42368 14.1975 8.43989 14.2134 8.45218C14.5782 8.72077 16.0243 10.148 18.3947 11.0368C19.866 11.5882 21.5119 11.7004 22.9506 11.57C22.9972 11.5657 23.1967 11.787 22.1291 11.9224Z"
    fill="black"
  />
</svg>
