<svg width="17" height="16" viewBox="0 0 17 16" fill="none" xmlns="http://www.w3.org/2000/svg">
<path fill-rule="evenodd" clip-rule="evenodd" d="M7.28824 14.7765C7.28824 15.4392 7.82549 15.9765 8.48823 15.9765C9.15097 15.9765 9.68823 15.4392 9.68823 14.7765V9.18823H15.2765C15.9392 9.18823 16.4765 8.65097 16.4765 7.98823C16.4765 7.32548 15.9392 6.78822 15.2765 6.78822H9.68823V1.2C9.68823 0.537259 9.15097 0 8.48823 0C7.82549 0 7.28824 0.537259 7.28824 1.2V6.78822H1.7C1.03726 6.78822 0.5 7.32548 0.5 7.98823C0.5 8.65097 1.03726 9.18823 1.7 9.18823H7.28824V14.7765Z" fill="white"/>
</svg>
