<svg
  width="24"
  height="24"
  viewBox="0 0 24 24"
  xmlns="http://www.w3.org/2000/svg"
  aria-hidden="true"
  role="img"
>
      <path
        d="M12.0001 24.0002C18.6276 24.0002 24.0002 18.6276 24.0002 12.0001C24.0002 5.37264 18.6276 0 12.0001 0C5.37264 0 0 5.37264 0 12.0001C0 18.6276 5.37264 24.0002 12.0001 24.0002Z"
        fill="white"
      />
      <path
        d="M14.9574 8.10222L14.9656 8.1092L15.0372 8.16806C15.6397 8.66508 16.8939 9.69926 18.7114 10.3808C19.7469 10.7665 20.8428 10.9649 21.9478 10.9669C22.2575 10.9669 22.5712 10.9821 22.8812 10.9564C22.6248 8.27972 21.392 5.7911 19.4179 3.96522C17.3951 2.08987 14.7763 1.0497 12.0161 1.0497C9.27892 1.04545 6.64092 2.07387 4.62891 3.92956C5.11921 4.45675 5.41922 4.90539 5.68582 5.3039C5.83221 5.52261 5.97037 5.72935 6.12499 5.92736C6.57614 6.50094 6.89137 6.46353 7.08938 6.38448L7.13327 6.36802C7.25974 6.32347 7.3818 6.26729 7.49788 6.20018C7.61734 6.12936 7.70263 6.073 7.79291 6.01315C7.89591 5.94507 8.01237 5.86776 8.19617 5.75878C8.57026 5.53633 8.81964 5.39767 8.97975 5.32286C9.71321 4.97871 10.4716 4.62309 11.5337 4.61361C11.8109 4.61331 12.0876 4.63835 12.3602 4.68843C13.6162 4.91113 14.4863 5.68297 14.8102 6.8613C14.9162 7.27652 14.9693 7.70196 14.9564 8.03065C14.9547 8.05449 14.955 8.07843 14.9574 8.10222Z"
        fill="#009BFF"
      />
      <path
        d="M1.36255 14.5338C1.9217 16.8565 3.25797 18.9809 5.12196 20.5024C7.06052 22.0841 9.50736 22.9398 11.9981 22.9398C14.8744 22.9398 17.5571 21.8425 19.6074 19.8473C21.6183 17.8907 22.8082 15.28 22.9132 12.4808L22.8775 12.4855C22.098 12.5984 21.31 12.6427 20.5227 12.6179C18.7485 12.5581 17.0731 12.0847 15.0904 11.0831C13.9204 10.4918 13.2743 10.1801 12.4739 10.121C11.4906 10.0461 11.0294 10.3868 10.2648 10.95C9.85227 11.2525 8.70056 12.0117 7.9798 12.4122C6.44177 13.2666 3.73506 14.2081 1.36255 14.5338Z"
        fill="#64BE2D"
      />
      <path
        d="M22.1291 11.9224C20.6578 12.1089 18.8964 11.9049 17.3019 11.3084C16.3159 10.9395 15.1211 10.3652 14.0014 9.72928C13.7238 9.57192 13.269 9.36643 13.4123 9.20034C13.8238 8.72401 13.4956 8.36914 12.8931 8.51254C11.3654 8.87539 10.6487 7.94743 10.4442 7.15214C10.3053 6.61422 9.56917 6.60874 8.88512 7.14741C8.42601 7.50901 7.57488 8.64122 6.6437 8.42251C5.38558 8.12699 5.99532 6.93368 6.01651 6.95114C6.84944 7.58782 7.87314 6.81049 8.2704 6.5833C8.67514 6.35262 9.06841 6.09825 9.49061 5.89924C10.3525 5.4895 11.15 5.20096 12.2465 5.39623C13.9448 5.69649 14.273 7.08282 14.1692 8.34645C14.1668 8.36638 14.1696 8.38661 14.1773 8.40515C14.185 8.42368 14.1975 8.43989 14.2134 8.45218C14.5782 8.72077 16.0243 10.148 18.3947 11.0368C19.866 11.5882 21.5119 11.7004 22.9506 11.57C22.9972 11.5657 23.1967 11.787 22.1291 11.9224ZM11.1051 6.78505C11.1017 6.78718 11.0989 6.79023 11.0972 6.79384C11.0954 6.79746 11.0947 6.8015 11.0951 6.8055C11.1026 6.91623 11.1747 7.6958 11.6859 7.95741C12.0009 8.11851 12.3577 8.08958 12.6016 7.91102C12.6059 7.9077 12.609 7.90297 12.6102 7.89765C12.6114 7.89233 12.6108 7.88675 12.6083 7.88188C12.6058 7.877 12.6018 7.87313 12.5968 7.87094C12.5918 7.86875 12.5862 7.86837 12.5809 7.86987C12.3876 7.92598 12.1251 7.93172 11.8964 7.81127C11.424 7.56188 11.4667 7.01673 11.4836 6.98306C11.5006 6.94939 11.9223 6.60699 12.4006 6.85962C12.6385 6.98431 12.7837 7.21923 12.841 7.41599C12.8425 7.42119 12.8457 7.4257 12.8502 7.42876C12.8546 7.43183 12.86 7.43324 12.8654 7.43277C12.8707 7.4323 12.8758 7.42997 12.8796 7.42617C12.8835 7.42238 12.8859 7.41737 12.8864 7.412C12.9176 7.08955 12.729 6.75064 12.3916 6.57781C11.8707 6.30997 11.1989 6.7232 11.1051 6.7838V6.78505ZM12.2141 7.12322C12.2155 7.08091 12.2043 7.03914 12.182 7.0032C12.1596 6.96726 12.1271 6.93876 12.0885 6.92132C12.05 6.90389 12.0071 6.89829 11.9653 6.90525C11.9236 6.91221 11.8849 6.93141 11.854 6.96041C11.8232 6.98942 11.8017 7.02692 11.7922 7.06817C11.7827 7.10942 11.7857 7.15255 11.8008 7.19211C11.8158 7.23166 11.8423 7.26586 11.8768 7.29035C11.9113 7.31485 11.9523 7.32855 11.9946 7.32971C12.0511 7.33139 12.1059 7.31058 12.1471 7.27187C12.1882 7.23315 12.2123 7.17969 12.2141 7.12322Z"
        fill="black"
      />
      <path
        d="M7.6818 16.2599C7.6818 15.4105 6.98087 15.0302 6.28541 15.0302H5.01245V18.9417H5.81937V17.5227H6.22208L7.24194 18.9417H8.21767L7.02575 17.339C7.44392 17.1163 7.6818 16.7275 7.6818 16.2599ZM5.81937 15.7663H6.24726C6.63202 15.7663 6.85245 15.9609 6.85245 16.2995C6.85245 16.6314 6.62803 16.8217 6.23629 16.8217H5.81937V15.7663Z"
        fill="white"
      />
      <path
        d="M10.6474 16.6213L10.5407 16.5774C10.1526 16.4188 9.91497 16.3096 9.91497 16.0714C9.91497 15.8551 10.1025 15.693 10.4015 15.6895C10.9734 15.6823 11.2759 16.0464 11.2759 16.0464L11.6455 15.4099C11.6455 15.4099 11.2035 14.9755 10.4372 14.9747C9.63292 14.9747 9.11345 15.4204 9.11345 16.1103C9.11345 16.7338 9.52269 17.0276 10.1816 17.3007L10.2788 17.3426C10.6571 17.5052 10.8711 17.6087 10.8711 17.8454C10.8711 18.0883 10.6412 18.2337 10.3157 18.236C9.90076 18.239 9.56259 18.0494 9.26159 17.709L8.87305 18.3687C8.87305 18.3687 9.41521 18.983 10.3157 18.9864C11.124 18.9894 11.6671 18.5126 11.6671 17.8067C11.6666 17.1074 11.1407 16.8281 10.6474 16.6213Z"
        fill="white"
      />
      <path
        d="M14.2442 15.0302H12.9648V18.9417H13.7721V17.6779H14.2442C15.211 17.6779 15.6512 16.9916 15.6512 16.3541C15.6512 15.7167 15.2106 15.0302 14.2442 15.0302ZM13.7716 15.7663H14.1706C14.5749 15.7663 14.826 15.9908 14.826 16.3496C14.826 16.7195 14.5749 16.9482 14.1706 16.9482H13.7716V15.7663Z"
        fill="white"
      />
      <path
        d="M19.0691 16.9272C19.3097 16.7377 19.4406 16.4534 19.4406 16.1102C19.4406 15.4743 18.926 15.0302 18.1892 15.0302H16.7825V18.9417H18.2668C19.0517 18.9417 19.5793 18.4789 19.5793 17.7898C19.5803 17.4295 19.3908 17.1145 19.0691 16.9272ZM17.5841 17.3175H18.2279C18.5617 17.3175 18.7612 17.4838 18.7612 17.7622C18.7612 18.0552 18.5667 18.2233 18.2279 18.2233H17.5841V17.3175ZM18.1394 16.6157H17.5841V15.7489H18.1226C18.4391 15.7489 18.6281 15.9067 18.6281 16.1711C18.6281 16.4536 18.45 16.6157 18.1394 16.6157Z"
        fill="white"
      />
</svg>
